<svg class="illustration" width="1155" height="700" viewBox="0 0 1155 700" fill="none" xmlns="http://www.w3.org/2000/svg">
<path fill-rule="evenodd" clip-rule="evenodd" d="M816.133 93.6769C842.197 86.6932 868.987 102.16 875.971 128.224L946.895 392.918C953.879 418.982 938.412 445.772 912.348 452.755L872.68 463.384V487.77C872.68 511.698 853.282 531.096 829.354 531.096H619.977L340.439 605.998C314.375 612.982 287.585 597.514 280.601 571.451L209.677 306.757C202.693 280.693 218.16 253.903 244.224 246.92L283.892 236.29L283.892 211.905C283.892 187.977 303.29 168.579 327.218 168.579L536.595 168.579L816.133 93.6769Z" fill="#FCAACF"/>
<path fill-rule="evenodd" clip-rule="evenodd" d="M875.971 128.224C868.987 102.16 842.197 86.6932 816.133 93.6769L536.595 168.579H829.354C853.282 168.579 872.68 187.977 872.68 211.905V463.384L912.348 452.755C938.412 445.772 953.879 418.982 946.895 392.918L875.971 128.224ZM619.977 531.096H327.218C303.29 531.096 283.892 511.698 283.892 487.77V236.29L244.224 246.92C218.16 253.903 202.693 280.693 209.677 306.757L280.601 571.451C287.585 597.514 314.375 612.982 340.439 605.998L619.977 531.096Z" fill="white" fill-opacity="0.4"/>
<rect x="422.983" y="263.254" width="64.7321" height="64.7321" rx="15.723" fill="black" fill-opacity="0.12"/>
<path fill-rule="evenodd" clip-rule="evenodd" d="M321.293 200.297C316.951 200.297 313.432 203.817 313.432 208.158V227.375C313.432 231.717 316.951 235.237 321.293 235.237H835.279C839.621 235.237 843.141 231.717 843.141 227.375V208.158C843.141 203.817 839.621 200.297 835.279 200.297H321.293ZM649.014 279.402C639.366 279.402 631.544 287.224 631.544 296.872C631.544 306.521 639.366 314.342 649.014 314.342H815.181C824.829 314.342 832.651 306.521 832.651 296.872C832.651 287.224 824.829 279.402 815.181 279.402H649.014ZM649.014 337.434C639.366 337.434 631.544 345.256 631.544 354.904C631.544 364.553 639.366 372.374 649.014 372.374H815.181C824.829 372.374 832.651 364.553 832.651 354.904C832.651 345.256 824.829 337.434 815.181 337.434H649.014ZM686.676 419.075C686.676 428.724 678.854 436.545 669.206 436.545C659.557 436.545 651.736 428.724 651.736 419.075C651.736 409.427 659.557 401.605 669.206 401.605C678.854 401.605 686.676 409.427 686.676 419.075ZM732.097 436.545C741.746 436.545 749.567 428.724 749.567 419.075C749.567 409.427 741.746 401.605 732.097 401.605C722.449 401.605 714.627 409.427 714.627 419.075C714.627 428.724 722.449 436.545 732.097 436.545ZM686.676 474.979C686.676 484.628 678.854 492.449 669.206 492.449C659.557 492.449 651.736 484.628 651.736 474.979C651.736 465.331 659.557 457.509 669.206 457.509C678.854 457.509 686.676 465.331 686.676 474.979ZM732.097 492.449C741.746 492.449 749.567 484.628 749.567 474.979C749.567 465.331 741.746 457.509 732.097 457.509C722.449 457.509 714.627 465.331 714.627 474.979C714.627 484.628 722.449 492.449 732.097 492.449ZM812.459 474.979C812.459 484.628 804.638 492.449 794.989 492.449C785.341 492.449 777.519 484.628 777.519 474.979C777.519 465.331 785.341 457.509 794.989 457.509C804.638 457.509 812.459 465.331 812.459 474.979ZM337.287 278.978C337.287 270.294 344.327 263.255 353.01 263.255H386.296C394.98 263.255 402.019 270.294 402.019 278.978V312.264C402.019 320.947 394.98 327.987 386.296 327.987H353.01C344.327 327.987 337.287 320.947 337.287 312.264V278.978ZM524.402 263.255C515.719 263.255 508.679 270.294 508.679 278.978V312.264C508.679 320.947 515.719 327.987 524.402 327.987H557.689C566.372 327.987 573.412 320.947 573.412 312.264V278.978C573.412 270.294 566.372 263.255 557.689 263.255H524.402ZM337.287 364.674C337.287 355.99 344.327 348.951 353.01 348.951H386.296C394.98 348.951 402.019 355.99 402.019 364.674V397.96C402.019 406.644 394.98 413.683 386.296 413.683H353.01C344.327 413.683 337.287 406.644 337.287 397.96V364.674ZM428.224 348.951C425.33 348.951 422.983 351.297 422.983 354.192V408.442C422.983 411.336 425.33 413.683 428.224 413.683H482.474C485.369 413.683 487.715 411.336 487.715 408.442V354.192C487.715 351.297 485.369 348.951 482.474 348.951H428.224ZM508.679 364.674C508.679 355.99 515.719 348.951 524.402 348.951H557.688C566.372 348.951 573.411 355.99 573.411 364.674V397.96C573.411 406.644 566.372 413.683 557.688 413.683H524.402C515.719 413.683 508.679 406.644 508.679 397.96V364.674ZM353.01 434.647C344.327 434.647 337.287 441.686 337.287 450.37V483.656C337.287 492.34 344.327 499.379 353.01 499.379H386.296C394.98 499.379 402.019 492.34 402.019 483.656V450.37C402.019 441.686 394.98 434.647 386.296 434.647H353.01ZM422.983 439.888C422.983 436.993 425.33 434.647 428.224 434.647H482.474C485.369 434.647 487.715 436.993 487.715 439.888V494.138C487.715 497.033 485.369 499.379 482.474 499.379H428.224C425.33 499.379 422.983 497.033 422.983 494.138V439.888ZM524.402 434.647C515.719 434.647 508.679 441.686 508.679 450.37V483.656C508.679 492.34 515.719 499.379 524.402 499.379H557.689C566.372 499.379 573.412 492.34 573.412 483.656V450.37C573.412 441.686 566.372 434.647 557.689 434.647H524.402Z" fill="white" fill-opacity="0.67"/>
<path fill-rule="evenodd" clip-rule="evenodd" d="M478.075 351.503C482.822 350.58 487.42 353.68 488.343 358.428C492.138 377.936 500.792 408.622 522.658 439.634C525.445 443.586 524.5 449.05 520.547 451.837C516.594 454.624 511.13 453.679 508.343 449.727C484.593 416.043 475.237 382.78 471.151 361.772C470.227 357.024 473.327 352.427 478.075 351.503Z" fill="#FFE177"/>
<path d="M642.187 471.519C653.688 484.589 572.908 468.743 584.406 463.282C593.82 458.81 596.819 441.952 596.819 441.952L625.509 440.787C625.509 440.787 621.475 447.983 642.187 471.519Z" fill="#FFE177"/>
<path d="M627.529 364.672C629.3 365.023 640.191 349.596 641.471 351.083C648.036 358.716 656.235 425.909 652.175 431.089C648.115 436.269 631.875 432.909 631.875 432.909C631.875 432.909 623.306 445.5 633.635 457.555C626.067 456.802 605.582 461.338 596.889 443.694C594.871 441.389 584.431 433.434 588.528 411.151C589.088 408.101 591.563 396.423 601.311 386.605C607.566 380.306 614.21 377.396 619.916 374.897C627.7 371.487 623.284 363.83 627.529 364.672Z" fill="#FFE177"/>
<path d="M646.808 366.961L644.714 360.195H631.987L610.401 390.481L608.075 411.767L622.915 421.288C613.115 410.787 618.405 399.947 622.915 397.627C628.554 394.728 635.854 397.569 639.237 394.186C642.62 390.803 636.498 381.782 636.659 377.11C636.788 373.373 643.479 368.787 646.808 366.961Z" fill="#CBB155"/>
<path fill-rule="evenodd" clip-rule="evenodd" d="M794.729 450.281C799.564 450.38 803.405 454.379 803.306 459.215C803.018 473.375 797.804 491.671 790.254 506.678C788.08 510.999 782.815 512.739 778.495 510.566C774.174 508.392 772.434 503.127 774.607 498.807C781.299 485.505 785.573 469.783 785.795 458.859C785.893 454.023 789.893 450.183 794.729 450.281Z" fill="#FFE177"/>
<path fill-rule="evenodd" clip-rule="evenodd" d="M365.701 301.484C371.122 301.484 375.517 297.089 375.517 291.668C375.517 286.246 371.122 281.852 365.701 281.852C360.28 281.852 355.885 286.246 355.885 291.668C355.885 297.089 360.28 301.484 365.701 301.484ZM365.7 299.8C370.192 299.8 373.833 296.159 373.833 291.667C373.833 287.175 370.192 283.534 365.7 283.534C361.208 283.534 357.567 287.175 357.567 291.667C357.567 296.159 361.208 299.8 365.7 299.8ZM527.56 283.973C527.56 283.169 528.212 282.517 529.016 282.517H546.484C547.288 282.517 547.939 283.169 547.939 283.973V285.87C547.939 286.353 547.548 286.744 547.066 286.744C546.584 286.744 546.193 286.353 546.193 285.87V285.429V284.992C546.193 284.59 545.867 284.264 545.465 284.264H530.035C529.633 284.264 529.307 284.59 529.307 284.992V306.247C529.307 306.649 529.633 306.975 530.035 306.975H545.465C545.867 306.975 546.193 306.649 546.193 306.247V302.899V300.861C546.193 300.378 546.584 299.987 547.066 299.987C547.548 299.987 547.939 300.378 547.939 300.861V307.266C547.939 308.07 547.288 308.722 546.484 308.722H529.016C528.212 308.722 527.56 308.07 527.56 307.266V283.973ZM533.383 286.885C532.579 286.885 531.927 287.536 531.927 288.341C531.927 289.145 532.579 289.796 533.383 289.796H542.117C542.921 289.796 543.572 289.145 543.572 288.341C543.572 287.536 542.921 286.885 542.117 286.885H533.383ZM531.927 295.62C531.927 294.816 532.579 294.164 533.383 294.164H540.079L537.167 297.076H533.383C532.579 297.076 531.927 296.424 531.927 295.62ZM463.087 292.502C463.413 292.829 463.943 292.829 464.269 292.502L466.69 290.081C468.33 288.442 468.33 285.784 466.69 284.144C465.051 282.505 462.393 282.505 460.753 284.144L454.348 290.55C454.02 290.878 454.02 291.409 454.348 291.737C454.676 292.065 455.207 292.065 455.535 291.737L461.93 285.342C462.915 284.357 464.512 284.357 465.497 285.342C466.482 286.327 466.482 287.924 465.497 288.909L463.087 291.32C462.76 291.646 462.76 292.176 463.087 292.502ZM446.374 298.524C446.332 298.566 446.295 298.611 446.264 298.659L445.808 299.115L445.804 299.119L442.747 307.209C442.533 307.774 443.086 308.327 443.65 308.113L451.741 305.056L451.745 305.052L452.738 304.059L452.941 303.856L452.928 303.843L461.589 295.182C461.917 294.854 461.917 294.323 461.589 293.995C461.261 293.667 460.73 293.667 460.402 293.995L451.741 302.656L448.179 299.094L452.853 294.42C453.181 294.092 453.181 293.56 452.853 293.232C452.525 292.905 451.993 292.905 451.665 293.232L446.374 298.524ZM444.789 306.071L447.102 300.409L450.452 303.759L444.789 306.071ZM451.984 306.558C451.519 306.558 451.142 306.934 451.142 307.399C451.142 307.864 451.519 308.24 451.984 308.24H461.519C461.984 308.24 462.361 307.864 462.361 307.399C462.361 306.934 461.984 306.558 461.519 306.558H451.984ZM463.763 307.399C463.763 306.934 464.14 306.558 464.604 306.558H467.128C467.593 306.558 467.97 306.934 467.97 307.399C467.97 307.864 467.593 308.24 467.128 308.24H464.604C464.14 308.24 463.763 307.864 463.763 307.399ZM794.989 436.544C804.638 436.544 812.459 428.723 812.459 419.074C812.459 409.426 804.638 401.604 794.989 401.604C785.341 401.604 777.519 409.426 777.519 419.074C777.519 428.723 785.341 436.544 794.989 436.544ZM553.678 286.223C552.541 285.086 550.698 285.086 549.561 286.223L537.33 298.455C537.25 298.535 537.19 298.632 537.155 298.74L535.611 303.372C535.421 303.941 535.962 304.482 536.531 304.293L541.163 302.749C541.27 302.713 541.368 302.653 541.448 302.573L549.256 294.763C549.577 294.442 549.578 293.921 549.257 293.599C548.936 293.276 548.413 293.276 548.091 293.598L547.934 293.754L547.934 293.755L540.231 301.459L537.86 302.371C537.742 302.416 537.626 302.3 537.672 302.183L538.584 299.812L550.935 287.459C551.39 287.004 552.127 287.004 552.582 287.459C553.037 287.914 553.037 288.651 552.582 289.106L550.258 291.43C549.963 291.755 549.974 292.257 550.287 292.569C550.609 292.89 551.13 292.889 551.452 292.568L553.678 290.341C554.815 289.204 554.815 287.361 553.678 286.223ZM534.034 379.914C532.485 379.914 531.23 381.169 531.23 382.718V384.962V393.936C531.23 395.485 532.485 396.741 534.034 396.741H548.057C549.606 396.741 550.862 395.485 550.862 393.936V382.718C550.862 381.169 549.606 379.914 548.057 379.914H534.034ZM532.912 385.803H541.606C542.071 385.803 542.448 385.426 542.448 384.962C542.448 384.497 542.071 384.12 541.606 384.12H532.912V382.999C532.912 382.224 533.54 381.596 534.315 381.596H547.777C548.551 381.596 549.179 382.224 549.179 382.999V393.656C549.179 394.43 548.551 395.058 547.777 395.058H534.315C533.54 395.058 532.912 394.43 532.912 393.656V385.803ZM539.643 391.132C539.643 390.357 540.271 389.73 541.046 389.73C541.82 389.73 542.448 390.357 542.448 391.132V392.534C542.448 393.309 541.82 393.936 541.046 393.936C540.271 393.936 539.643 393.309 539.643 392.534V391.132ZM543.149 384.962C543.149 384.497 543.526 384.12 543.99 384.12H546.514C546.979 384.12 547.356 384.497 547.356 384.962C547.356 385.426 546.979 385.803 546.514 385.803H543.99C543.526 385.803 543.149 385.426 543.149 384.962ZM534.034 372.902C534.034 369.03 537.173 365.891 541.045 365.891C544.918 365.891 548.057 369.03 548.057 372.902V378.161C548.057 378.741 547.586 379.212 547.005 379.212C546.424 379.212 545.953 378.741 545.953 378.161V372.902C545.953 370.191 543.756 367.994 541.045 367.994C538.335 367.994 536.137 370.191 536.137 372.902V378.161C536.137 378.741 535.667 379.212 535.086 379.212C534.505 379.212 534.034 378.741 534.034 378.161V372.902ZM368.532 394.754C369.079 395.535 370.22 395.523 370.77 394.744C371.667 393.476 372.861 391.779 373.398 390.986C373.584 390.711 373.81 390.368 374.005 390.07C374.255 389.689 374.162 389.18 373.795 388.91C373.405 388.624 372.857 388.714 372.58 389.11L372.069 389.84C371.314 391.011 370.651 391.987 370.212 392.623C369.939 393.017 369.368 393.017 369.095 392.623C367.258 389.967 361.52 381.36 361.52 377.456C361.52 372.807 365.161 369.039 369.653 369.039C374.145 369.039 377.787 372.807 377.787 377.456C377.787 379.513 376.193 382.876 374.417 385.987L374.165 386.505C373.978 386.889 374.095 387.352 374.442 387.6C374.858 387.899 375.441 387.778 375.701 387.336C375.883 387.027 376.077 386.695 376.206 386.467C378.382 382.616 379.469 379.612 379.469 377.456C379.469 371.846 375.075 367.298 369.653 367.298C364.232 367.298 359.837 371.846 359.837 377.456C359.837 381.885 365.956 391.079 368.532 394.754ZM373.86 377.456C373.86 379.86 371.977 381.81 369.653 381.81C367.33 381.81 365.446 379.86 365.446 377.456C365.446 375.052 367.33 373.103 369.653 373.103C370.175 373.103 370.675 373.201 371.136 373.381C371.59 373.558 371.653 374.161 371.313 374.511L371.192 374.635C370.967 374.866 370.638 374.953 370.314 374.934C370.103 374.875 369.882 374.844 369.653 374.844C368.259 374.844 367.129 376.014 367.129 377.456C367.129 378.899 368.259 380.068 369.653 380.068C371.047 380.068 372.177 378.899 372.177 377.456C372.177 377.191 372.139 376.936 372.068 376.695C372.059 376.401 372.138 376.106 372.343 375.896C372.753 375.479 373.489 375.572 373.661 376.13C373.79 376.548 373.86 376.994 373.86 377.456ZM441.576 379.485C441.18 378.954 441.307 378.201 441.856 377.83L454.557 369.228C455.032 368.906 455.655 368.906 456.13 369.228L468.843 377.837C469.387 378.206 469.517 378.951 469.13 379.482C468.762 379.988 468.059 380.111 467.541 379.76L456.13 372.032C455.655 371.711 455.032 371.711 454.557 372.032L443.158 379.752C442.644 380.1 441.947 379.983 441.576 379.485ZM463.506 393.095V392.84L463.511 392.842V389.169C463.511 388.704 463.888 388.327 464.352 388.327C464.817 388.327 465.194 388.704 465.194 389.169V394.217C465.194 394.836 464.692 395.339 464.073 395.339H446.615C445.995 395.339 445.493 394.836 445.493 394.217V380.759C445.493 380.292 445.872 379.913 446.339 379.913C446.781 379.913 447.143 380.251 447.182 380.683V393.095C447.182 393.405 447.433 393.656 447.743 393.656H462.945C463.255 393.656 463.506 393.405 463.506 393.095ZM464.35 379.913C463.885 379.913 463.506 380.29 463.506 380.755V386.083C463.506 386.548 463.885 386.925 464.35 386.925C464.815 386.925 465.194 386.548 465.194 386.083V380.755C465.194 380.29 464.815 379.913 464.35 379.913ZM459.565 368.134C459.565 368.11 459.567 368.085 459.569 368.061C459.567 368.039 459.565 368.017 459.565 367.994C459.565 367.607 459.879 367.293 460.267 367.293H460.41H464.35H464.493C464.881 367.293 465.194 367.607 465.194 367.994C465.194 368.003 465.194 368.011 465.194 368.019L465.193 368.036L465.192 368.052L465.191 368.061C465.193 368.085 465.194 368.11 465.194 368.134V372.762C465.194 373.227 464.815 373.603 464.35 373.603C463.885 373.603 463.506 373.227 463.506 372.762V368.695H461.254V369.957C461.254 370.422 460.875 370.799 460.41 370.799C459.945 370.799 459.565 370.422 459.565 369.957V368.134ZM451.122 382.438C451.122 381.818 451.624 381.316 452.244 381.316H458.444C459.063 381.316 459.566 381.818 459.566 382.438V391.412C459.566 391.877 459.189 392.254 458.723 392.254C458.258 392.254 457.881 391.877 457.881 391.412V388.327H457.877V383.56C457.877 383.25 457.626 382.999 457.316 382.999H453.372C453.062 382.999 452.811 383.25 452.811 383.56V391.465C452.782 391.905 452.415 392.254 451.967 392.254C451.501 392.254 451.122 391.875 451.122 391.408V382.438ZM360.665 289.215C360.509 289.529 360.673 289.883 360.996 290.018C361.381 290.18 361.839 289.968 362.049 289.606C362.205 289.335 362.429 289.012 362.743 288.681C363.582 287.798 364.811 287.555 365.594 287.495C365.997 287.464 366.343 287.139 366.343 286.736C366.343 286.377 366.068 286.082 365.709 286.1C364.775 286.148 362.996 286.425 361.69 287.757C361.176 288.302 360.854 288.834 360.665 289.215ZM373.002 300.952C372.455 300.404 372.455 299.517 373.003 298.969C373.55 298.422 374.438 298.422 374.986 298.97L375.62 299.604C376.557 299.353 377.598 299.594 378.333 300.329L382.601 304.598C383.696 305.694 383.695 307.471 382.6 308.566C381.504 309.661 379.727 309.662 378.632 308.567L374.363 304.298C373.629 303.564 373.388 302.524 373.638 301.588L373.002 300.952ZM375.34 301.285C374.793 301.832 374.791 302.72 375.337 303.267L379.623 307.57C380.171 308.12 381.061 308.12 381.609 307.572C382.156 307.025 382.158 306.138 381.612 305.59L377.325 301.287C376.778 300.737 375.888 300.737 375.34 301.285ZM368.369 456.452L361.894 461.848H358.021C357.308 461.848 356.73 462.426 356.73 463.139V470.885C356.73 471.598 357.308 472.176 358.021 472.176H361.894L368.369 477.572C368.874 477.993 369.64 477.634 369.64 476.977V457.047C369.64 456.39 368.874 456.031 368.369 456.452ZM358.279 463.784C358.279 463.571 358.452 463.397 358.666 463.397H362.358L367.879 458.797C367.963 458.727 368.09 458.787 368.09 458.896V475.128C368.09 475.237 367.963 475.297 367.879 475.227L362.358 470.627H358.666C358.452 470.627 358.279 470.453 358.279 470.239V463.784ZM377.613 456.95C377.917 456.62 378.428 456.609 378.72 456.95C379.903 458.333 382.577 462.012 382.577 467.038C382.577 472.057 379.911 475.733 378.725 477.121C378.431 477.465 377.915 477.452 377.61 477.118C377.318 476.796 377.327 476.298 377.608 475.966C378.68 474.697 381.027 471.421 381.027 467.038C381.027 462.654 378.679 459.369 377.607 458.099C377.327 457.767 377.319 457.269 377.613 456.95ZM376.085 459.831C375.809 459.482 375.301 459.488 375.001 459.818C374.728 460.118 374.727 460.579 374.97 460.904C375.724 461.907 377.154 464.186 377.154 467.038C377.154 469.892 375.723 472.178 374.969 473.183C374.726 473.507 374.729 473.969 375.004 474.266C375.303 474.591 375.806 474.596 376.079 474.25C376.976 473.114 378.704 470.479 378.704 467.038C378.704 463.604 376.983 460.972 376.085 459.831ZM372.392 462.662C372.689 462.335 373.195 462.338 373.444 462.704C374.003 463.524 374.831 465.072 374.831 467.038C374.831 469.01 373.998 470.557 373.439 471.374C373.192 471.735 372.692 471.739 372.395 471.417C372.122 471.121 372.125 470.657 372.342 470.319C372.745 469.694 373.282 468.572 373.282 467.038C373.282 465.505 372.745 464.386 372.343 463.763C372.125 463.424 372.121 462.96 372.392 462.662ZM445.588 462.828C445.588 457.437 449.958 453.067 455.349 453.067C460.74 453.067 465.111 457.437 465.111 462.828V464.223C466.651 464.223 467.9 465.472 467.9 467.012V472.59C467.9 474.13 466.651 475.379 465.111 475.379V477.471C465.111 479.011 463.862 480.26 462.322 480.26H459.285C459.011 480.679 458.537 480.957 457.999 480.957H454.094C453.247 480.957 452.56 480.27 452.56 479.423C452.56 478.576 453.247 477.889 454.094 477.889H457.999C458.595 477.889 459.112 478.229 459.365 478.726H462.043C462.813 478.726 463.437 478.101 463.437 477.331V475.658V475.379H460.927V464.223H463.437V462.828C463.437 458.362 459.816 454.74 455.349 454.74C450.882 454.74 447.261 458.362 447.261 462.828V464.223H449.771V475.379H445.588C444.047 475.379 442.799 474.13 442.799 472.59V467.012C442.799 465.472 444.047 464.223 445.588 464.223V462.828ZM462.601 465.896H464.832C465.602 465.896 466.226 466.521 466.226 467.291V472.311C466.226 473.081 465.602 473.705 464.832 473.705H462.601V465.896ZM448.098 465.896H445.867C445.096 465.896 444.472 466.521 444.472 467.291V472.311C444.472 473.081 445.096 473.705 445.867 473.705H448.098V465.896ZM568.185 353.848C565.881 355.231 559.191 361.229 565.881 371.824C564.037 371.824 558.506 375.474 557.047 385.936C555.588 396.398 557.928 400.572 561.448 405.471C564.864 410.226 567.929 411.692 571.101 413.209C573.777 414.489 576.529 415.805 579.633 419.163C585.819 425.854 587.137 433.047 588.103 438.314C588.885 442.58 589.435 445.583 592.153 446.031C592.227 446.043 592.385 446.11 592.618 446.207C594.397 446.953 600.537 449.527 606.902 443.726C611.173 439.834 613.81 441.117 615.829 442.1C617.363 442.846 618.54 443.419 619.808 441.422C620.622 440.139 622.268 438.524 624.098 436.729C628.269 432.638 633.393 427.611 631.792 423.446C630.63 420.427 627.83 419.363 625.034 418.3C622.283 417.255 619.536 416.211 618.361 413.306C615.992 407.449 619.245 399.622 622.112 396.252C623.309 394.845 625.863 394.76 628.623 394.669C631.395 394.577 634.376 394.478 636.401 393.026C639.298 390.948 636.852 385.153 635 380.767C633.869 378.088 632.96 375.934 633.625 375.474C636.835 373.253 639.186 370.757 642.056 367.71L642.056 367.71C643.27 366.421 644.576 365.034 646.08 363.527C662.834 346.738 622.573 295.773 622.573 295.773C622.573 295.773 613.702 327.665 598.145 338.177C582.329 348.863 574.448 351.566 570.617 352.879C569.487 353.266 568.71 353.533 568.185 353.848ZM549.717 452.811C544.422 448.62 540.059 443.764 536.479 438.84C528.872 428.377 525.719 418.798 525.606 418.457C525.603 418.448 525.603 418.445 525.604 418.449C521.843 406.311 508.954 399.52 496.816 403.281C484.678 407.042 477.887 419.93 481.648 432.068C482.479 434.751 487.471 449.687 499.26 465.901C509.893 480.525 526.816 497.17 551.95 505.78C553.08 510.034 554.539 514.524 556.341 519.248C559.383 527.226 564.261 542.897 566.861 551.252L566.861 551.253L566.862 551.254L566.862 551.257L566.865 551.265C567.77 554.172 568.398 556.19 568.576 556.688C571.204 564.035 573.361 570.902 575.066 576.867C575.591 578.71 576.071 580.462 576.513 582.121C578.357 589.099 579.707 594.49 580.094 597.099C602.993 610.014 668.89 609.647 687.373 599.617C687.668 593.395 687.741 586.583 687.622 579.429C687.594 577.798 687.557 576.138 687.511 574.47C687.336 568.238 687.013 561.804 686.571 555.333C686.463 553.713 686.339 552.094 686.213 550.466L686.212 550.443L686.202 550.318C686.021 547.997 685.823 545.676 685.61 543.363C685.959 543.52 686.311 543.672 686.665 543.822L689.175 544.904C691.826 546.121 694.632 547.076 697.428 548.027L697.431 548.028C698.112 548.259 698.792 548.49 699.469 548.725C706.561 550.811 713.893 552.353 721.487 552.889C729.088 553.355 736.855 552.981 744.56 551.477C744.709 551.442 744.858 551.406 745.007 551.371L745.328 551.294L745.329 551.294C748.906 550.441 752.477 549.589 755.938 548.227L758.727 547.206C759.354 546.981 759.963 546.704 760.572 546.427C760.867 546.292 761.162 546.158 761.458 546.03C762.974 545.381 764.431 544.619 765.887 543.858L765.888 543.857C766.184 543.702 766.48 543.547 766.777 543.393C770.219 541.468 773.531 539.348 776.616 536.999C779.691 534.643 782.577 532.112 785.254 529.438C790.593 524.077 795.084 518.18 798.856 512.005C804.147 503.306 801.82 491.836 793.334 485.978C784.534 479.904 772.476 482.113 766.402 490.913L766.21 491.191C763.683 494.852 760.834 498.146 757.76 500.898C756.218 502.266 754.623 503.499 752.997 504.611C751.364 505.711 749.675 506.633 747.974 507.475C747.671 507.601 747.372 507.736 747.073 507.87L747.072 507.871C746.51 508.123 745.95 508.375 745.367 508.57C745.197 508.628 745.031 508.695 744.866 508.762L744.865 508.762C744.597 508.871 744.329 508.98 744.044 509.049L742.683 509.431C741.451 509.875 740.14 510.118 738.829 510.362C738.266 510.466 737.703 510.571 737.146 510.691C733.324 511.18 729.343 511.143 725.3 510.694C721.242 510.175 717.145 509.047 713.093 507.646C712.433 507.356 711.768 507.088 711.103 506.819L711.103 506.819C709.756 506.275 708.411 505.731 707.104 505.012L705.624 504.283C705.128 504.05 704.634 503.808 704.161 503.503L701.277 501.812L700.554 501.396L699.859 500.914L698.465 499.958L697.068 499.013L696.369 498.541L695.701 498.009L693.02 495.908L692.346 495.389L691.709 494.812L690.433 493.663C686.959 490.695 683.893 487.193 680.883 483.688L680.255 482.957C680.052 482.722 679.843 482.49 679.629 482.262C678.609 481.176 677.509 480.212 676.347 479.368C676.145 479.125 675.937 478.89 675.72 478.662C670.901 473.603 665.572 471.89 659.227 469.849C652.091 467.555 643.67 464.847 633.243 456.503C622.198 463.111 614.524 463.185 609.275 463.236C608.593 463.243 607.951 463.249 607.349 463.269C598.646 463.555 591.456 454.788 591.456 454.788C591.456 454.788 582.773 462.072 559.869 459.3C556.812 457.767 553.985 456.004 551.373 454.077C551.36 453.375 550.787 452.811 550.082 452.811H549.717Z" fill="#2249B3"/>
<path fill-rule="evenodd" clip-rule="evenodd" d="M580.094 597.1C602.993 610.014 668.89 609.648 687.373 599.618C687.668 593.396 687.741 586.583 687.622 579.43C687.594 577.798 687.557 576.139 687.511 574.47C687.336 568.239 687.013 561.805 686.571 555.333C686.463 553.708 686.338 552.082 686.212 550.448L686.202 550.318C686.021 547.998 685.823 545.677 685.61 543.364C685.959 543.521 686.311 543.673 686.665 543.823L689.175 544.904C691.826 546.122 694.632 547.076 697.428 548.027C698.11 548.259 698.791 548.491 699.469 548.726C706.561 550.812 713.893 552.354 721.487 552.89C729.088 553.355 736.855 552.982 744.56 551.478C744.816 551.417 745.072 551.356 745.328 551.295C748.905 550.442 752.477 549.59 755.937 548.228L758.727 547.207C759.354 546.982 759.963 546.704 760.572 546.427C760.867 546.293 761.162 546.159 761.458 546.031C762.975 545.381 764.432 544.619 765.887 543.858C766.184 543.703 766.48 543.548 766.777 543.394C770.219 541.469 773.531 539.348 776.616 537C779.691 534.643 782.577 532.112 785.254 529.439C790.593 524.078 795.084 518.18 798.856 512.006C804.147 503.307 801.82 491.837 793.334 485.979C784.534 479.905 772.476 482.114 766.402 490.914L766.21 491.192C763.683 494.853 760.834 498.147 757.76 500.899C756.218 502.267 754.623 503.499 752.997 504.611C751.364 505.712 749.675 506.633 747.974 507.476C747.671 507.602 747.371 507.737 747.072 507.871C746.51 508.124 745.95 508.376 745.367 508.57C745.197 508.628 745.031 508.696 744.865 508.763C744.597 508.872 744.329 508.98 744.044 509.05L742.683 509.432C741.451 509.876 740.14 510.119 738.829 510.362C738.266 510.467 737.703 510.571 737.146 510.692C733.324 511.181 729.343 511.144 725.3 510.695C721.242 510.175 717.145 509.048 713.093 507.647C712.433 507.357 711.768 507.088 711.103 506.82C709.756 506.276 708.411 505.732 707.104 505.013L705.624 504.284C705.128 504.05 704.634 503.808 704.161 503.504L701.277 501.813L700.554 501.397L699.859 500.914L698.465 499.958L697.068 499.014L696.369 498.542L695.701 498.01L693.02 495.909L692.347 495.39L691.709 494.813L690.433 493.663C686.959 490.696 683.893 487.194 680.883 483.689L680.255 482.957C680.052 482.723 679.843 482.491 679.629 482.263C678.609 481.177 677.509 480.212 676.347 479.369C676.145 479.126 675.937 478.89 675.72 478.663C670.607 473.296 664.983 471.308 658.148 468.893C651.297 466.471 643.23 463.62 633.243 456.504C622.198 463.111 614.524 463.186 609.275 463.237C608.593 463.244 607.951 463.25 607.349 463.27C598.646 463.556 591.456 454.789 591.456 454.789C591.456 454.789 582.487 462.313 558.734 459.157C547.152 469.982 545.256 490.184 556.341 519.249C559.384 527.227 564.261 542.9 566.862 551.254C567.768 554.167 568.398 556.19 568.576 556.688C571.204 564.035 573.361 570.903 575.066 576.867C575.591 578.711 576.071 580.462 576.513 582.122C578.357 589.1 579.707 594.491 580.094 597.1Z" fill="white" fill-opacity="0.31"/>
<path d="M687.98 577.327C667.838 582.415 647.226 584.978 626.531 584.978C621.553 584.978 616.566 584.83 611.57 584.535C599.881 583.844 587.267 581.991 575.846 579.687C575.403 578.027 574.924 576.276 574.398 574.432C586.373 576.976 599.577 578.958 611.865 579.687C637.381 581.208 662.879 578.755 687.648 572.404C687.722 572.386 687.796 572.367 687.87 572.367C687.916 574.036 687.953 575.695 687.98 577.327Z" fill="white"/>
<path d="M686.929 553.231C667.331 560.126 646.415 563.703 625.711 563.703C623.249 563.703 620.806 563.647 618.354 563.546C601.614 562.855 583.216 559.001 567.222 553.774C566.531 551.847 566.194 549.511 565.438 547.529C582.114 553.383 600.969 557.978 618.557 558.706C641.465 559.647 664.87 556.024 686.561 548.216C686.69 549.894 686.819 551.562 686.929 553.231Z" fill="white"/>
<path d="M684.708 529.197C666.834 534.774 648.185 537.623 629.582 537.623C623.203 537.623 616.833 537.291 610.51 536.618C591.105 534.553 575.285 532.503 557.558 524.483C556.313 522.058 556.203 519.057 554.857 516.67C573.847 526.091 589.98 529.548 611.017 531.788C635.454 534.396 660.491 531.797 684.099 524.293C684.311 525.916 684.505 527.547 684.708 529.197Z" fill="white"/>
<path d="M488.131 357.741C488.131 357.741 492.716 330.554 488.117 327.689C480.351 322.851 483.199 333.478 480.745 328.718C478.291 323.958 470.051 300.06 465.123 302.351C457.539 305.877 469.681 324.361 469.24 326.486C469.24 326.486 457.867 333.524 454.724 336.455C451.581 339.386 454.288 348.823 458.881 352.736C460.809 354.379 468.125 358.784 471.324 362.764C475.742 368.262 486.876 360.469 488.131 357.741Z" fill="#FFE177"/>
<path fill-rule="evenodd" clip-rule="evenodd" d="M525.604 418.449C521.843 406.311 508.954 399.52 496.816 403.281C484.678 407.042 477.887 419.93 481.648 432.068C482.479 434.751 487.471 449.688 499.26 465.901C509.893 480.525 526.816 497.17 551.95 505.78C546.128 483.864 549.035 468.222 558.734 459.156C559.116 459.207 559.494 459.255 559.869 459.3C549.732 454.216 542.13 446.613 536.479 438.84C528.872 428.377 525.719 418.798 525.606 418.457C525.603 418.448 525.603 418.446 525.604 418.449Z" fill="white" fill-opacity="0.49"/>
<path d="M785.323 465.071C785.323 465.071 777.323 443.176 781.71 439.995C789.117 434.623 787.023 445.424 789.136 440.503C791.249 435.583 797.791 411.165 802.867 413.104C810.68 416.088 799.866 435.38 800.456 437.468C800.456 437.468 812.295 443.69 815.637 446.393C818.978 449.096 816.941 458.699 812.634 462.926C810.826 464.7 803.838 469.608 800.926 473.804C796.905 479.598 786.767 467.703 785.323 465.071Z" fill="#FFE177"/>
<path d="M805.438 394.819C805.438 394.819 807.597 401.015 809.762 402.323C812.175 403.78 815.416 403.546 818.956 403.208C818.956 403.208 812.768 405.139 811.029 408.267C810.014 410.092 810.092 410.633 810.566 416.726C810.566 416.726 808.787 411.337 806.464 409.435C804.141 407.533 797.048 408.337 797.048 408.337C797.048 408.337 803.568 405.936 804.868 403.431C806.217 400.831 805.438 394.819 805.438 394.819Z" fill="white"/>
</svg>