<?xml version="1.0" encoding="utf-8"?>
<!-- Generator: Adobe Illustrator 24.0.1, SVG Export Plug-In . SVG Version: 6.00 Build 0)  -->
<svg version="1.1" id="Layer_2" xmlns="http://www.w3.org/2000/svg" xmlns:xlink="http://www.w3.org/1999/xlink" x="0px" y="0px"
	 viewBox="0 0 92 112.2" style="enable-background:new 0 0 92 112.2;" xml:space="preserve">
<style type="text/css">
	.st0{fill:#B3C1CE;}
	.st1{fill:#4C6C8C;}
	.st2{fill:#889FB3;}
	.st3{fill:#0F385F;}
	.st4{fill:#22476D;}
	.st5{fill:#0F3860;}
	.st6{fill:#A3B5C3;}
	.st7{fill:#A4B5C3;}
	.st8{fill:#758FA6;}
	.st9{fill:#DAE1E7;}
	.st10{fill:#DAE2E8;}
	.st11{fill:#A1C0C0;}
	.st12{fill:#B3C1CF;}
	.st13{fill:#4D6C8C;}
	.st14{fill:#C9D4DD;}
	.st15{fill:#C1CCD6;}
	.st16{fill:#002A55;}
	.st17{fill:#879DB2;}
	.st18{fill:#00A99D;}
</style>
<path class="st0" d="M26.5,39.1c0,0.2,0,0.4,0,0.6l0.3-2.1c-0.1,0.3-0.1,0.6-0.2,0.8l0.8-1.8c-0.2,0.4-0.4,0.7-0.6,1l1.2-1.6
	c-0.3,0.4-0.7,0.7-1.1,1.1l1.6-1.2c-0.5,0.4-1.1,0.7-1.7,0.9l1.8-0.8c-0.3,0.1-0.6,0.2-0.9,0.3c-1.9,0.6-3.6,1.8-4.6,3.5
	c-1,1.8-1.3,3.9-0.8,5.9c0.5,1.9,1.8,3.6,3.5,4.6c1.8,1.1,3.9,1.3,5.9,0.8c2.5-0.8,4.8-2.1,6.6-3.9c2.2-2.2,3.4-5.2,3.5-8.3
	c0-4.2-3.5-7.7-7.7-7.7C30,31.5,26.6,34.9,26.5,39.1L26.5,39.1z"/>
<path class="st0" d="M4.5,36.5c0.6-0.4,0.9-1.1,0.8-1.8c0.1-8.9,3.7-17.4,9.9-23.8c4.2-4.4,9.4-7.6,15.2-9.4
	c2.3-0.8,4.7-1.2,7.1-1.3c0.3,0,0.7,0,0.9-0.3h3.6c2.3,0.9,3.8,2.4,3.9,5.1c0.4,0.6,0.6,1.3,0.4,2c-0.1,1.5,0.2,3-0.2,4.5
	c-0.5,0.6-0.7,0.1-1-0.2c-0.6-0.8-1.6-1.1-2.5-0.7c-0.9,0.4-1.5,1.4-1.4,2.4c0,2.8,0,5.6,0,8.4c0,1.6,0,3.3,0,4.9
	c0.1,1.4-0.4,2.7-1.4,3.7c-2.1,2-3.4,4.7-3.7,7.5c-0.1,0.6-0.2,1.1-0.9,1.2c-0.2,0-0.4-0.2-0.6-0.4c-1.3-1.9-3.1-2.3-5.2-2.2
	c-2.8,0.1-5.6,0.1-8.4,0c-2.2-0.3-4.3,1-5.2,3c-0.7,0.9-0.7,2.2,0.1,3.1c1.3,2.5,3.3,3.3,6,3.3c2.7-0.1,5.4-0.1,8.1,0.1
	c0.1,0.1,0.2,0.2,0.3,0.3c0.1,0.7-0.5,0.8-1,1c-1.8,0.7-3.4,1.8-4.7,3.2c-1.3,1.3-2.6,2.6-3.9,3.9c-1.3,1.5-3.2,2.3-5.2,2.4
	c-2.4,0-3.1,1.7-1.9,3.7c0.2,0.3,0.5,0.6-0.1,0.9c-1.3,0.2-2.3-0.6-3.4-1.1c-3.3-1.8-5.4-5.2-5.4-9c-0.1-4,0-8.1,0-12.1
	C5,38,4.8,37.2,4.5,36.5z"/>
<path class="st1" d="M71.5,96.3c0.1,2.3,0.1,4.6-0.1,6.8c-0.3,4-3,7.3-6.8,8.6c-0.5,0.2-1.1,0.2-1.5,0.6H52.2
	c-0.1-0.4,0.2-0.5,0.4-0.6c2.3-0.8,3.6-3.2,3.1-5.6c0.5-1,1.5-1.2,2.3-1.6c4.5-1.7,8.6-4.3,12.2-7.5C70.6,96.6,70.9,96.1,71.5,96.3z
	"/>
<path class="st2" d="M29.5,112.2c-3.3-0.7-6-2.2-7.6-5.3c-0.6-1-0.9-2-1.1-3.1c-0.3-2.5,0-5.1-0.1-7.6c0.3-0.1,0.6,0,0.8,0.2
	c1.5,1.4,3.1,2.7,4.8,3.8c0.2,0.1,0.4,0.4,0.4,0.7c-0.7,0.5-0.9,1.3-0.6,2.1c0.5,2.2,2.5,3.8,4.8,3.8c1.2,0.1,2.3,0,3.5,0
	c0.7,0,1.3,0.1,1.7,0.8c0.4,1.8,1.6,3.4,3.4,4.1c0.2,0.1,0.5,0.2,0.4,0.6L29.5,112.2z"/>
<path class="st3" d="M39.8,112.2c-2-0.9-3.7-2-3.9-4.5c-0.2-0.6-0.6-1.3,0.1-1.8c1.2-0.2,2.3,0.7,3.5,0.6c4.7,0.4,9.4,0.3,14-0.1
	c0.8-0.1,1.4-0.7,2.2-0.4c1.2,2.6-0.9,5.2-3,6c-0.2,0.1-0.4,0.2-0.6,0.3L39.8,112.2z"/>
<path class="st0" d="M26.5,39.1c0,0.2,0,0.4,0,0.6l0.3-2.1c-0.1,0.3-0.1,0.6-0.2,0.8l0.8-1.8c-0.2,0.4-0.4,0.7-0.6,1l1.2-1.6
	c-0.3,0.4-0.7,0.7-1.1,1.1l1.6-1.2c-0.5,0.4-1.1,0.7-1.7,0.9l1.8-0.8c-0.3,0.1-0.6,0.2-0.9,0.3c-1.9,0.6-3.6,1.8-4.6,3.5
	c-1,1.8-1.3,3.9-0.8,5.9c0.5,1.9,1.8,3.6,3.5,4.6c1.8,1.1,3.9,1.3,5.9,0.8c2.5-0.8,4.8-2.1,6.6-3.9c2.2-2.2,3.4-5.2,3.5-8.3
	c0-4.2-3.5-7.7-7.7-7.7C30,31.5,26.6,34.9,26.5,39.1L26.5,39.1z"/>
<path class="st0" d="M4.5,36.5c0.6-0.4,0.9-1.1,0.8-1.8c0.1-8.9,3.7-17.4,9.9-23.8c4.2-4.4,9.4-7.6,15.2-9.4
	c2.3-0.8,4.7-1.2,7.1-1.3c0.3,0,0.7,0,0.9-0.3h3.6c2.3,0.9,3.8,2.4,3.9,5.1c0.4,0.6,0.6,1.3,0.4,2c-0.1,1.5,0.2,3-0.2,4.5
	c-0.5,0.6-0.7,0.1-1-0.2c-0.6-0.8-1.6-1.1-2.5-0.7c-0.9,0.4-1.5,1.4-1.4,2.4c0,2.8,0,5.6,0,8.4c0,1.6,0,3.3,0,4.9
	c0.1,1.4-0.4,2.7-1.4,3.7c-2.1,2-3.4,4.7-3.7,7.5c-0.1,0.6-0.2,1.1-0.9,1.2c-0.2,0-0.4-0.2-0.6-0.4c-1.3-1.9-3.1-2.3-5.2-2.2
	c-2.8,0.1-5.6,0.1-8.4,0c-2.2-0.3-4.3,1-5.2,3c-0.7,0.9-0.7,2.2,0.1,3.1c1.3,2.5,3.3,3.3,6,3.3c2.7-0.1,5.4-0.1,8.1,0.1
	c0.1,0.1,0.2,0.2,0.3,0.3c0.1,0.7-0.5,0.8-1,1c-1.8,0.7-3.4,1.8-4.7,3.2c-1.3,1.3-2.6,2.6-3.9,3.9c-1.3,1.5-3.2,2.3-5.2,2.4
	c-2.4,0-3.1,1.7-1.9,3.7c0.2,0.3,0.5,0.6-0.1,0.9c-1.3,0.2-2.3-0.6-3.4-1.1c-3.3-1.8-5.4-5.2-5.4-9c-0.1-4,0-8.1,0-12.1
	C5,38,4.8,37.2,4.5,36.5z"/>
<path class="st1" d="M71.5,96.3c0.1,2.3,0.1,4.6-0.1,6.8c-0.3,4-3,7.3-6.8,8.6c-0.5,0.2-1.1,0.2-1.5,0.6H52.2
	c-0.1-0.4,0.2-0.5,0.4-0.6c2.3-0.8,3.6-3.2,3.1-5.6c0.5-1,1.5-1.2,2.3-1.6c4.5-1.7,8.6-4.3,12.2-7.5C70.6,96.6,70.9,96.1,71.5,96.3z
	"/>
<path class="st2" d="M29.5,112.2c-3.3-0.7-6-2.2-7.6-5.3c-0.6-1-0.9-2-1.1-3.1c-0.3-2.5,0-5.1-0.1-7.6c0.3-0.1,0.6,0,0.8,0.2
	c1.5,1.4,3.1,2.7,4.8,3.8c0.2,0.1,0.4,0.4,0.4,0.7c-0.7,0.5-0.9,1.3-0.6,2.1c0.5,2.2,2.5,3.8,4.8,3.8c1.2,0.1,2.3,0,3.5,0
	c0.7,0,1.3,0.1,1.7,0.8c0.4,1.8,1.6,3.4,3.4,4.1c0.2,0.1,0.5,0.2,0.4,0.6L29.5,112.2z"/>
<path class="st3" d="M39.8,112.2c-2-0.9-3.7-2-3.9-4.5c-0.2-0.6-0.6-1.3,0.1-1.8c1.2-0.2,2.3,0.7,3.5,0.6c4.7,0.4,9.4,0.3,14-0.1
	c0.8-0.1,1.4-0.7,2.2-0.4c1.2,2.6-0.9,5.2-3,6c-0.2,0.1-0.4,0.2-0.6,0.3L39.8,112.2z"/>
<path class="st4" d="M10.6,59.7c0.9,0.6,2,1.1,3.1,1.2c0.1,0.1,0.1,0.3,0.1,0.4c-0.1,0.4-0.3,0.7-0.5,1c-1.1,1.7-0.4,3.3,1.7,3.5
	c4,0.4,8-0.9,11-3.6c1.7-1.5,3.3-3.2,4.9-4.8c0.9-1,2.2-1.6,3.5-1.7c6.4-0.4,11.3-5.7,11.2-12.1c0-1.2,0.1-2.3,0-3.5
	c-0.2-1.5,0.4-3,1.5-4c2.4-2.4,3.7-5.7,3.5-9.1c0-2.8,0-5.6,0-8.4s-1.5-3.6-3.9-2.2c-0.3,0.2-0.7,0.6-1.1,0
	c-0.2-1.5-0.5-3.1,0.2-4.6l0-6.7c1.7,0,3.4,0.1,5.1,0.5c-0.3,0.3,0,0.3,0.1,0.5c1.8,1.4,3.5,2.9,5.2,4.5c6,5.9,9.6,13.8,10.2,22.1
	c0.2,1.6,0.3,3.2,0.2,4.7c0,0.8-0.2,1.5-1.3,0.9c-0.9-0.7-1.6-1.8-2.9-2.1c-2.4-0.7-4.9,0.6-5.7,3c-0.8,2.1,0,4.4,2,5.6
	c2,1.1,4.6,0.7,6.1-1.1c0.3-0.4,0.5-0.9,1.1-1c0.8,0.1,0.8,0.7,0.8,1.3c0,6.2,0.5,12.5-0.6,18.6c-1.1,6.3-3.9,12.2-8.2,17
	c-1.8,2.1-3.8,4-6,5.7c-0.6,0.6-1.3,0.9-2.1,1.1c1.2-0.2,1.2-0.2,1.3,0.6c-0.6,0.2-1.3,0.3-1.9,0.2c-2.6,0-5.1,0-7.7,0
	c-1.1,0-2.1,0.1-3.2,0.4c-2.8,0.6-5.1,2.5-6.3,5.1c-0.3,0.5-0.3,1.1-1,1.3c-2.1-0.7-4-1.7-5.7-3.1c-8.8-6.2-13.8-14.9-15.3-25.5
	c-0.1-1.5-0.2-3.1,0-4.6C10.1,60.2,10.1,59.8,10.6,59.7z"/>
<path class="st5" d="M65.7,38.2c0.8,0.4,0.8,0,0.8-0.7c0-2.8-0.2-5.6-0.7-8.3c-1-5.3-3.1-10.2-6.3-14.6c-2.1-2.8-4.5-5.2-7.3-7.3
	c-0.6-0.7-1.4-1.3-2.3-1.6l1.2-0.1c5.5,0.6,10.8,2.7,15.3,6c7.4,5.1,12.6,12.9,14.5,21.7c0.2,1,0.3,1.9,0.5,2.9c0.6,0.9,0.8,2,0.6,3
	c0.1,7.8,0.1,15.6,0,23.5c-0.3,8.3-3.5,16.3-9.1,22.5c-2.7,3-5.8,5.5-9.3,7.5c-0.8,0.6-1.7,1-2.7,1.2c-0.7-0.2-0.8-0.9-1.1-1.4
	c-1.2-2.5-3.5-4.3-6.2-5c-0.8-0.3-1.7-0.2-2.4-0.9c-0.5-0.5-1.1-0.1-1.6-0.3c6.3-4,11.2-9.9,14-16.8c1.9-4.6,2.8-9.5,2.7-14.5
	c0-3.6,0-7.2,0-10.8c0-0.5,0.3-1.2-0.6-1.4C65.8,41.3,65.7,39.7,65.7,38.2z"/>
<path class="st6" d="M60.9,93.7c6.8-3.1,12.4-8.3,16.1-14.8c2.8-4.8,4.4-10.2,4.7-15.8c0.1-0.2,0.2-0.4,0.1-0.7
	c-0.2-1.1,0.3-1.6,1.3-1.9c2.1-0.6,3.4-2.6,3.2-4.7c0-3.4,0-6.7,0-10.1c0.1-1.9-1.2-3.7-3-4.2c-1.2-0.3-1.7-0.9-1.5-2
	c0-0.2,0-0.4-0.1-0.5c-0.1-0.9-0.2-1.9-0.3-2.8c5-1.5,8.4,1,9.7,3.9c0.6,1.3,0.9,2.7,0.9,4.1c0,4.4,0,8.9,0,13.3
	c0,3.7-1.2,6.7-4.8,8.3c-0.5,0.2-0.8,0.7-0.8,1.2c-1.1,7.9-4.1,15.5-8.7,22c-1.9,2.6-4,5.1-6.2,7.4c-2.9,2.6-6.1,4.9-9.5,6.8
	c-1.2,0.7-2.6,1.3-4,1.7c-0.4-0.6,0.2-0.9,0.4-1.3c1.3-1.6,2.1-3.6,2.4-5.6c0.1-0.8,0.1-1.6-0.1-2.4C60.6,94.8,60.4,94.2,60.9,93.7z
	"/>
<path class="st7" d="M10.6,59.7c-0.7,2-0.4,4-0.1,6c1.9,12.9,8.8,22.2,20.6,28c0.3,0.4,0.4,0.9,0.2,1.3c-0.7,3,0.2,6.1,2.2,8.3
	c0.3,0.4,0.6,0.7,0.5,1.2c-0.3,0.3-0.7,0.4-1,0.2c-2.2-0.8-4.3-1.9-6.1-3.3c-0.1-0.1-0.2-0.3-0.3-0.5c-1.4-1.3-3.2-2-4.5-3.4
	c-0.5-0.5-0.9-1-1.4-1.4v7.7c-0.6-2-0.2-4.1-0.2-6.1c0-1-0.4-2-1.1-2.7C12.5,88,7.9,79,6,69.4c-0.1-0.4-0.1-0.7-0.1-1.1
	c0-1.4-0.9-2.6-2.1-3.2C1,63.6,0.1,60.9,0,58c0-4.8-0.1-9.5,0-14.3c0.1-3.2,1.4-5.8,4.4-7.2c1-0.1,0.8,0.7,0.8,1.2c0,4.3,0,8.7,0,13
	c0,3.6,1.7,6.3,4.5,8.5C10,59.4,10.3,59.6,10.6,59.7z"/>
<path class="st8" d="M46.4,26.6c-0.1-2.8,0-5.5,0-8.3c0.1-0.6,0-1.2-0.3-1.7c0-1.6-0.1-3.2-0.1-4.8c-0.5-0.7-0.9-1.5-1.9-1.7
	c-1.9-0.2-3.1,0.8-3.1,2.8c0,4.5,0,8.9,0,13.4c0.1,1.4-0.5,2.7-1.5,3.6c-2,1.9-3.3,4.5-3.6,7.2c0.2,1.1,0.3,2.2,0.2,3.3
	c-0.1,1.2,0,2.7-0.7,3.8c-0.1,0.1-0.1,0.1-0.2,0.2c-0.4,0.7-1.2,1.2-2.1,1.2c-0.5,0.2-1.1,0.3-1.5,0.5c-0.9,0.3-1.7,0.6-2.6,0.8
	c-0.7,0.2-1.3,0.5-1.9,0.9c-2.5,1.6-4.3,4-6.4,6c-1.3,1.5-3.3,2.4-5.3,2.4C14,56,12.8,57,12.7,58.4c0,0,0,0.1,0,0.1
	c-0.1,1,0.7,1.6,1,2.4c0,0.1,0,0.2,0,0.2c0.2,0.2,0.4,0.4,0.7,0.4c2.7,0.3,5.5-0.3,7.8-1.8c2.1-1.6,3.9-3.3,5.6-5.3
	c1.6-1.8,3.9-2.9,6.2-3c4.4-0.4,7.1-3.5,7.2-8c0-1.2,0-2.4,0-3.6c-0.2-2.3,0.7-4.6,2.4-6.2C45.6,31.7,46.6,29.2,46.4,26.6z"/>
<path class="st0" d="M35.4,38.7c0.1,1.1,0.8,2.2,0.3,3.3c-0.1,1.9-1.5,3.4-3.3,3.6c-0.7,0.1-1.3,0.6-2,0.3c-3.1,0-6.3,0-9.4-0.1
	c-2.4,0.1-4.5-1.3-5.2-3.6c-0.4-1-0.4-2.1,0-3.1c0.6-2.1,2.6-3.6,4.8-3.4c3.3,0,6.5,0.1,9.8,0C32.4,35.6,34.5,36.8,35.4,38.7z"/>
<path class="st9" d="M15.6,34.3c-0.2,0.8-0.3,1.5-0.4,2.2c-0.3,1.2-1.4,2-2.6,1.7c-1.1-0.2-2-1.1-2.1-2.2c-0.2-3.4,0.4-6.7,1.6-9.9
	c0.2-1,0.6-1.9,1.2-2.6c0.7-0.8,2-1,2.9-0.5c1.1,0.4,1.7,1.7,1.2,2.8c-0.4,1.5-0.9,3-1.2,4.6c-0.1,0.3-0.1,0.6,0.1,0.8
	c0.2,0.3,0.5,0,0.7-0.1c0.5-0.3,1-0.4,1.6-0.4c4.8,0,9.6,0,14.4,0c1.4-0.1,2.6,0.9,2.8,2.3c0,0.2,0,0.4,0,0.6c0,1.2-1,2.1-2.1,2.1
	c0,0,0,0,0,0c-5.3,0-10.6,0-15.9,0C16.6,35.6,16.3,34.8,15.6,34.3z"/>
<path class="st10" d="M38,5.3c1.3-0.3,2.6,0.6,2.8,1.9c0,0.2,0.1,0.3,0,0.5c0.1,1.2-1.1,2.5-2.7,2.7c-3.2,0.4-6.3,1.3-9.1,2.8
	c-2,1.1-3.9,2.5-5.7,4c-0.9,1-2.5,1.1-3.6,0.2C19.3,17,19.1,16.6,19,16c-0.2-0.8,0.1-1.6,0.7-2.1c4.3-4.4,10-7.3,16.1-8.3
	C36.4,5.4,37.2,5.3,38,5.3z"/>
<path class="st11" d="M30.3,46c1.9-0.4,3.8-0.7,4.8-2.7c0.2-0.4,0.4-0.8,0.6-1.2c0.8,2.4-0.3,3.9-2.7,3.9c-0.9,0-1.7,0.4-2.6,0.3
	C30.3,46.2,30.3,46.1,30.3,46z"/>
<path class="st12" d="M33.9,104.7c-0.2-1.2-1.3-1.8-1.8-2.7c-1.2-2.1-1.7-4.6-1.2-7c0.1-0.4,0.1-0.8,0.2-1.2
	c1.2-2.5,2.7-4.7,5.3-5.9c0.4-0.3,0.9-0.4,1.4-0.5c0.3,0.7-0.2,1.1-0.6,1.6c-1.2,1.4-1.4,3.5-0.5,5.1c0.7,1.6,2.4,2.6,4.1,2.4
	c3.4,0,6.8,0,10.2,0c1.8,0.1,3.5-0.9,4.1-2.5c0.8-1.8,0.9-3.6-0.7-5.2c-0.4-0.4-0.9-0.7-0.7-1.4c3.3,0.7,5.3,2.9,6.7,5.9
	c0.1,0.2,0.2,0.4,0.3,0.6c0.7,2.3,0.6,4.7-0.3,6.9c-0.7,1.4-1.6,2.8-2.5,4.1l-2.3,1.3l-1.9,0.7c-0.4,0.1-0.7,0.2-0.5-0.4
	c0.1-0.3,0.5-0.4,0.7-0.7c1.5-1.3,2.1-3.5,1.3-5.3c-0.8-1.9-2.2-2.8-4.5-2.8c-3.4,0-6.7,0-10.1,0c-2-0.1-3.9,1.2-4.4,3.2
	c-0.6,2,0.2,4.1,1.9,5.3c0.4,0.2,0.9,0.3,0.9,1c-1.1-0.1-2.1-0.4-3-0.9C35.3,106,34.4,105.5,33.9,104.7z"/>
<path class="st13" d="M33.9,104.7l2.3,1.3c-0.6,0.5-0.2,1.2-0.3,1.8c-0.4-0.7-1-0.6-1.6-0.6c-1.6-0.1-3.3,0.3-4.8-0.2
	c-2.2-0.6-3.8-2.6-3.9-4.9c-0.1-0.8,0-1.5,1.1-1.1C29,102.4,31.2,104,33.9,104.7z"/>
<path class="st2" d="M39.3,106.9c-1-0.5-1.9-1.2-2.6-2c-1-1.5-1.2-3.5-0.3-5.2c0.7-1.6,2.3-2.7,4.1-2.6c3.5,0,7,0.1,10.5,0
	c2.3-0.1,4.3,1.3,5,3.5c0.7,2.2-0.3,4.6-2.2,5.8c-0.5,0.3,0.1,0.2,0.1,0.3c-0.9,0.4-1.9,0.6-2.8,0.5c-3.4,0-6.8,0-10.2,0
	C40.4,107.1,39.8,107,39.3,106.9z"/>
<path class="st3" d="M13.8,61.1c4.3,0.6,8.6-1.1,11.3-4.5c1.1-1.3,2.4-2.4,3.6-3.6c1.3-1.3,3.1-2,4.9-2.1c4.1,0,7.4-3.3,7.4-7.3
	c0-0.1,0-0.2,0-0.4c0-1.4,0-2.7,0-4.1c-0.1-2.3,0.8-4.5,2.4-6c1.8-1.7,2.8-4.1,2.7-6.5c-0.1-3.4,0-6.8,0-10.2c0.5-0.2,0.6-0.8,1.1-1
	c1.1-0.8,2.7-0.5,3.4,0.7c0.3,0.4,0.4,0.9,0.4,1.4c0.1,3.8,0.2,7.7,0,11.5c-0.1,2.6-1.3,5-3.1,6.8c-1.3,1.1-2,2.8-1.9,4.5
	c0.2,2,0.1,3.9-0.2,5.9c-0.7,4.3-5,8.8-9.3,9.5c-0.8,0.2-1.6,0.3-2.5,0.3c-1.1,0.1-2.1,0.6-2.7,1.5c-2.2,2.1-4.1,4.4-6.6,6.1
	c-3,2-6.6,2.9-10.2,2.5c-0.9-0.1-1.7-0.7-2-1.5c-0.4-0.8-0.2-1.8,0.4-2.5C13.2,61.9,13.5,61.5,13.8,61.1z"/>
<path class="st14" d="M53.9,87.3c0.2,0.3,0.4,0.5,0.6,0.7c2.7,1.9,1.9,6.7-0.6,8.1c-0.7,0.4-1.5,0.7-2.4,0.7c-3.6,0-7.3,0-10.9,0
	c-2.5,0-4.5-1.9-4.7-4.4c-0.3-1.5,0.3-3.1,1.4-4.2c0.3-0.2,0.5-0.5,0.6-0.9c1.2-0.5,2.5-0.7,3.8-0.6c3.2,0,6.4,0,9.6,0
	C52.2,86.7,53.1,86.9,53.9,87.3z"/>
<path class="st15" d="M46,71.5c1.8,0,3.5,0,5.3,0c2.7,0,4.9,2.2,4.9,4.9c0.1,2.7-1.9,5-4.6,5.2c-3.7,0.1-7.4,0.1-11.1,0
	c-2.7-0.2-4.8-2.5-4.6-5.2c0-2.7,2.2-4.9,4.9-4.9C42.5,71.4,44.2,71.5,46,71.5z"/>
<path class="st16" d="M45.9,66.2c-1.6,0-3.3,0-4.9,0c-2.3,0-4.7-1.8-5.1-3.8c-0.6-2.5,0.7-5,3.1-5.9c0.6-0.3,1.3-0.4,2-0.4
	c3.3,0,6.6,0,9.9,0c2.4,0,4.5,1.7,5.1,4c0.5,2.5-0.9,5-3.2,5.9c-0.9,0.2-1.8,0.3-2.8,0.2C48.7,66.3,47.3,66.2,45.9,66.2z"/>
<path class="st16" d="M65.7,38.2c0.7,1.5,0.8,3.2,0.3,4.8c-1.3,2.6-4.3,3.6-6.9,2.4c-0.9-0.4-1.6-1.1-2.1-2
	c-1.2-2.2-0.6-4.9,1.3-6.5c1.9-1.5,4.7-1.4,6.5,0.2C65,37.4,65.3,37.8,65.7,38.2z"/>
<path class="st17" d="M81.7,39c0.2,0.2,0.3,0.6,0.3,0.9c-0.1,0.8,0.3,1,1,1.1c2.2,0.5,3.8,2.4,3.8,4.7c-0.1,3.3,0,6.7,0,10.1
	c0,2.8-0.9,4.3-3.4,5.1c-1.4,0.4-1.2,1.4-1.6,2.3C81.7,55.1,81.7,47,81.7,39z"/>
<path class="st18" d="M20.6,35.9h10c2.8,0,5,2.2,5,5v0c0,2.8-2.2,5-5,5h-10c-2.8,0-5-2.2-5-5v0C15.6,38.2,17.8,35.9,20.6,35.9z"/>
</svg>
